<svg width="17" height="16" viewBox="0 0 17 16" fill="none" xmlns="http://www.w3.org/2000/svg">
<path d="M6.75685 13.7931H10.1857C12.7402 13.7931 14.2051 12.3283 14.2051 9.77372V6.22629C14.2051 3.67174 12.7402 2.2069 10.1857 2.2069H6.75685C6.36263 2.2069 5.99833 1.99655 5.8012 1.65517C5.60403 1.3138 5.60403 0.8931 5.8012 0.551724C5.99836 0.210349 6.36266 0 6.75685 0H10.1857C13.9677 0 16.412 2.44408 16.412 6.22629V9.77372C16.412 13.5557 13.9678 16 10.1857 16H6.75685C6.36263 16 5.99833 15.7897 5.8012 15.4483C5.60403 15.1069 5.60403 14.6862 5.8012 14.3448C5.99836 14.0035 6.36266 13.7931 6.75685 13.7931Z" fill="#FF5223"/>
<path d="M0.323695 7.21933L2.66581 4.88005H2.66569C2.87246 4.67303 3.15288 4.55665 3.44535 4.5564C3.73784 4.55615 4.01852 4.67192 4.22565 4.87857C4.43279 5.0851 4.54943 5.36538 4.5499 5.65789V6.89656H10.343C10.7372 6.89656 11.1015 7.1069 11.2986 7.44828C11.4957 7.78966 11.4957 8.21036 11.2986 8.55173C11.1015 8.89311 10.7372 9.10346 10.343 9.10346H4.5499V10.3421C4.54904 10.5607 4.4834 10.7741 4.36111 10.9554C4.23882 11.1367 4.06542 11.2775 3.86295 11.36C3.72908 11.4155 3.58573 11.4446 3.4409 11.4456C3.14779 11.4451 2.86688 11.328 2.66022 11.12L0.323657 8.78067C0.116392 8.57378 0 8.29286 0 8C0 7.70715 0.116379 7.42624 0.323657 7.21933L0.323695 7.21933Z" fill="#FF5223"/>
</svg>
