<svg width="181" height="181" viewBox="0 0 181 181" fill="none" xmlns="http://www.w3.org/2000/svg">
<g filter="url(#filter0_d_34_230)">
<rect x="55.6562" y="26.9998" width="85.1083" height="85.1083" rx="20" transform="rotate(9.91602 55.6562 26.9998)" fill="white"/>
</g>
<g filter="url(#filter1_d_34_230)">
<rect x="65.123" y="40.4783" width="61.8155" height="61.8155" rx="20" transform="rotate(9.91602 65.123 40.4783)" fill="white"/>
</g>
<g clip-path="url(#clip0_34_230)">
<path d="M85.6356 76.4727C85.2841 78.4834 86.6195 80.3962 88.6174 80.7455C90.6159 81.0949 92.5205 79.7484 92.872 77.7377C93.2235 75.727 91.8887 73.8143 89.8902 73.4649C87.8922 73.1156 85.9871 74.462 85.6356 76.4727ZM98.2993 78.6865C97.9478 80.6972 99.2832 82.61 101.281 82.9593C103.28 83.3087 105.184 81.9622 105.536 79.9516C105.887 77.9409 104.552 76.0281 102.554 75.6787C100.556 75.3295 98.6508 76.6758 98.2993 78.6865ZM75.9536 78.5316C77.9521 78.881 79.8567 77.5346 80.2082 75.5239C80.5597 73.5132 79.2249 71.6004 77.2264 71.2511C75.2284 70.9018 73.3233 72.2481 72.9718 74.2588C72.6203 76.2695 73.9557 78.1824 75.9536 78.5316ZM102.772 85.0957L99.1539 84.4632C97.1559 84.1139 95.2508 85.4603 94.8993 87.471L94.5811 89.2911C94.4054 90.2962 95.073 91.2529 96.072 91.4275L103.308 92.6926C104.307 92.8672 105.26 92.1937 105.436 91.1887L105.754 89.3685C106.105 87.3578 104.77 85.445 102.772 85.0957ZM90.1083 82.8819L86.4901 82.2494C84.4922 81.9001 82.587 83.2464 82.2355 85.2571L81.9173 87.0773C81.7416 88.0823 82.4093 89.039 83.4082 89.2137L90.6447 90.4787C91.6436 90.6534 92.5963 89.9799 92.772 88.9748L93.0902 87.1547C93.4417 85.144 92.1063 83.2312 90.1083 82.8819ZM77.4445 80.6681L73.8263 80.0355C71.8284 79.6863 69.9232 81.0326 69.5717 83.0433L69.2535 84.8634C69.0778 85.8685 69.7455 86.8252 70.7444 86.9998L77.9809 88.2649C78.9799 88.4395 79.9325 87.7661 80.1082 86.761L80.4264 84.9409C80.7779 82.9302 79.4425 81.0173 77.4445 80.6681ZM78.8173 62.1504L104.145 66.578L102.872 73.8586C104.267 74.1025 105.432 74.8701 106.242 75.9114L107.906 66.3909C108.178 64.8358 107.182 63.3575 105.686 63.0959L78.5491 58.3519C77.0527 58.0903 75.6142 59.1431 75.3424 60.6982L73.678 70.2187C74.7929 69.5138 76.1499 69.1871 77.5446 69.4309L78.8173 62.1504Z" fill="#250CED"/>
</g>
<defs>
<filter id="filter0_d_34_230" x="0.14209" y="0.141846" width="180.209" height="180.209" filterUnits="userSpaceOnUse" color-interpolation-filters="sRGB">
<feFlood flood-opacity="0" result="BackgroundImageFix"/>
<feColorMatrix in="SourceAlpha" type="matrix" values="0 0 0 0 0 0 0 0 0 0 0 0 0 0 0 0 0 0 127 0" result="hardAlpha"/>
<feOffset dy="14"/>
<feGaussianBlur stdDeviation="22"/>
<feColorMatrix type="matrix" values="0 0 0 0 0.337255 0 0 0 0 0.356863 0 0 0 0 0.866667 0 0 0 0.1 0"/>
<feBlend mode="normal" in2="BackgroundImageFix" result="effect1_dropShadow_34_230"/>
<feBlend mode="normal" in="SourceGraphic" in2="effect1_dropShadow_34_230" result="shape"/>
</filter>
<filter id="filter1_d_34_230" x="13.6201" y="15.6204" width="153.253" height="153.253" filterUnits="userSpaceOnUse" color-interpolation-filters="sRGB">
<feFlood flood-opacity="0" result="BackgroundImageFix"/>
<feColorMatrix in="SourceAlpha" type="matrix" values="0 0 0 0 0 0 0 0 0 0 0 0 0 0 0 0 0 0 127 0" result="hardAlpha"/>
<feOffset dy="16"/>
<feGaussianBlur stdDeviation="22"/>
<feColorMatrix type="matrix" values="0 0 0 0 0.0509804 0 0 0 0 0.0588235 0 0 0 0 0.109804 0 0 0 0.1 0"/>
<feBlend mode="normal" in2="BackgroundImageFix" result="effect1_dropShadow_34_230"/>
<feBlend mode="normal" in="SourceGraphic" in2="effect1_dropShadow_34_230" result="shape"/>
</filter>
<clipPath id="clip0_34_230">
<rect width="36.731" height="29.564" fill="white" transform="translate(74.0264 57.5613) rotate(9.91602)"/>
</clipPath>
</defs>
</svg>
