<svg width="18" height="18" viewBox="0 0 18 18" fill="none" xmlns="http://www.w3.org/2000/svg">
<path fill-rule="evenodd" clip-rule="evenodd" d="M7.82611 8.08694H5.60863C5.10441 8.08694 4.69568 8.49563 4.69568 8.99989C4.69568 9.50414 5.10438 9.91302 5.60863 9.91302H7.82611C7.97023 9.91302 8.08706 10.0298 8.08706 10.1738V12.3913C8.08706 12.8955 8.49576 13.3044 9.00001 13.3044C9.50426 13.3044 9.91315 12.8955 9.91315 12.3913V10.1738C9.91315 10.0299 10.03 9.91302 10.1739 9.91302H12.3914C12.8956 9.91302 13.3045 9.50414 13.3045 8.99989C13.3045 8.49563 12.8956 8.08694 12.3914 8.08694H10.1739C10.03 8.08694 9.91315 7.97011 9.91315 7.82599V5.60851C9.91315 5.10428 9.50426 4.69556 9.00001 4.69556C8.49575 4.69556 8.08706 5.10426 8.08706 5.60851V7.82599C8.08706 7.97011 7.97023 8.08694 7.82611 8.08694Z" fill="#444444"/>
<path d="M9 16.174C12.962 16.174 16.1739 12.9621 16.1739 9.00005C16.1739 5.03804 12.962 1.82613 9 1.82613C5.038 1.82613 1.82609 5.03804 1.82609 9.00005C1.82609 12.9621 5.038 16.174 9 16.174ZM9 18C4.0295 18 0 13.9707 0 9C0 4.0295 4.0295 0 9 0C13.9705 0 18 4.0295 18 9C18 13.9705 13.9707 18 9 18Z" fill="#444444"/>
</svg>
