<svg width="184" height="184" viewBox="0 0 184 184" fill="none" xmlns="http://www.w3.org/2000/svg">
<g filter="url(#filter0_d_34_235)">
<rect x="41" y="45.0571" width="85.863" height="85.863" rx="20" transform="rotate(-12.1401 41 45.0571)" fill="white"/>
</g>
<g filter="url(#filter1_d_34_235)">
<rect x="54.958" y="54.0735" width="62.3636" height="62.3636" rx="20" transform="rotate(-12.1401 54.958 54.0735)" fill="white"/>
</g>
<rect x="69.9971" y="65.5374" width="17.1726" height="8.5863" rx="4" transform="rotate(-12.1401 69.9971 65.5374)" fill="#250CED"/>
<rect width="17.1726" height="8.5863" rx="4" transform="matrix(0.977636 -0.210303 -0.210303 -0.977636 96.686 94.3416)" fill="#250CED"/>
<rect x="72.2842" y="76.1699" width="17.1726" height="22.8968" rx="4" transform="rotate(-12.1401 72.2842 76.1699)" fill="#250CED"/>
<rect width="17.1726" height="22.8968" rx="4" transform="matrix(0.977636 -0.210303 -0.210303 -0.977636 94.3989 83.7085)" fill="#E18C5F"/>
<defs>
<filter id="filter0_d_34_235" x="0.754639" y="0.754639" width="182.491" height="182.491" filterUnits="userSpaceOnUse" color-interpolation-filters="sRGB">
<feFlood flood-opacity="0" result="BackgroundImageFix"/>
<feColorMatrix in="SourceAlpha" type="matrix" values="0 0 0 0 0 0 0 0 0 0 0 0 0 0 0 0 0 0 127 0" result="hardAlpha"/>
<feOffset dy="14"/>
<feGaussianBlur stdDeviation="22"/>
<feColorMatrix type="matrix" values="0 0 0 0 0.337255 0 0 0 0 0.356863 0 0 0 0 0.866667 0 0 0 0.1 0"/>
<feBlend mode="normal" in2="BackgroundImageFix" result="effect1_dropShadow_34_235"/>
<feBlend mode="normal" in="SourceGraphic" in2="effect1_dropShadow_34_235" result="shape"/>
</filter>
<filter id="filter1_d_34_235" x="14.7126" y="16.7129" width="154.575" height="154.575" filterUnits="userSpaceOnUse" color-interpolation-filters="sRGB">
<feFlood flood-opacity="0" result="BackgroundImageFix"/>
<feColorMatrix in="SourceAlpha" type="matrix" values="0 0 0 0 0 0 0 0 0 0 0 0 0 0 0 0 0 0 127 0" result="hardAlpha"/>
<feOffset dy="16"/>
<feGaussianBlur stdDeviation="22"/>
<feColorMatrix type="matrix" values="0 0 0 0 0.0509804 0 0 0 0 0.0588235 0 0 0 0 0.109804 0 0 0 0.1 0"/>
<feBlend mode="normal" in2="BackgroundImageFix" result="effect1_dropShadow_34_235"/>
<feBlend mode="normal" in="SourceGraphic" in2="effect1_dropShadow_34_235" result="shape"/>
</filter>
</defs>
</svg>
