<svg width="139" height="22" viewBox="0 0 139 22" fill="none" xmlns="http://www.w3.org/2000/svg">
<path d="M31.42 13.1735C31.42 9.5615 26.156 11.1295 26.156 8.6095C26.156 7.5595 26.982 7.0135 28.032 7.0415C29.222 7.0555 29.838 7.7975 29.922 8.4555H31.322C31.168 6.9715 29.95 5.9495 28.088 5.9495C26.156 5.9495 24.854 7.0415 24.854 8.6515C24.854 12.2775 30.132 10.5975 30.132 13.2295C30.132 14.1535 29.404 14.8535 28.172 14.8535C26.814 14.8535 26.24 14.0415 26.156 13.2295H24.798C24.826 14.8395 26.212 15.9315 28.172 15.9315C30.286 15.9315 31.42 14.5595 31.42 13.1735ZM36.5568 9.1135C37.8728 9.1135 38.9928 9.9395 38.9788 11.4375H34.1348C34.2748 9.9395 35.3108 9.1135 36.5568 9.1135ZM40.1408 13.4675H38.7688C38.4888 14.2935 37.7608 14.8815 36.6128 14.8815C35.3108 14.8815 34.2188 14.0275 34.1208 12.4735H40.2528C40.2808 12.2075 40.2948 11.9835 40.2948 11.7035C40.2948 9.6035 38.8388 8.0355 36.6128 8.0355C34.3728 8.0355 32.8188 9.5615 32.8188 11.9835C32.8188 14.4195 34.4288 15.9595 36.6128 15.9595C38.5168 15.9595 39.7488 14.8675 40.1408 13.4675ZM41.5004 11.9695C41.5004 14.3495 43.0824 15.9595 45.1264 15.9595C46.5404 15.9595 47.5344 15.2315 47.9964 14.4055V15.8335H49.2844V8.1615H47.9964V9.5615C47.5484 8.7635 46.5684 8.0355 45.1404 8.0355C43.0824 8.0355 41.5004 9.5755 41.5004 11.9695ZM47.9964 11.9835C47.9964 13.7895 46.7924 14.8395 45.3924 14.8395C43.9924 14.8395 42.8024 13.7755 42.8024 11.9695C42.8024 10.1635 43.9924 9.1415 45.3924 9.1415C46.7924 9.1415 47.9964 10.2055 47.9964 11.9835ZM52.7114 11.6615C52.7114 9.8835 53.6354 9.3375 54.8534 9.3375H55.1894V8.0215C53.9714 8.0215 53.1454 8.5535 52.7114 9.4075V8.1615H51.4374V15.8335H52.7114V11.6615ZM56.184 11.9835C56.184 14.4195 57.738 15.9595 59.922 15.9595C61.826 15.9595 63.072 14.8955 63.464 13.3695H62.092C61.812 14.3355 61.056 14.8815 59.922 14.8815C58.522 14.8815 57.486 13.8875 57.486 11.9835C57.486 10.1075 58.522 9.1135 59.922 9.1135C61.056 9.1135 61.826 9.7015 62.092 10.6255H63.464C63.072 9.0155 61.826 8.0355 59.922 8.0355C57.738 8.0355 56.184 9.5755 56.184 11.9835ZM65.1639 15.8335H66.4379V11.5915C66.4379 9.9395 67.3339 9.1275 68.6359 9.1275C69.9239 9.1275 70.7779 9.9255 70.7779 11.4935V15.8335H72.0379V11.3115C72.0379 9.1135 70.6799 8.0215 68.9719 8.0215C67.8939 8.0215 66.9419 8.4555 66.4379 9.2675V5.4735H65.1639V15.8335ZM84.4034 15.8335H85.7474L82.2334 6.1315H80.7634L77.2354 15.8335H78.5794L79.3634 13.6635H83.6194L84.4034 15.8335ZM83.2554 12.6275H79.7274L81.4914 7.6995L83.2554 12.6275ZM92.899 15.8335H94.159V11.3115C94.159 9.1135 92.801 8.0215 91.023 8.0215C89.987 8.0215 89.063 8.4555 88.559 9.2535V8.1615H87.285V15.8335H88.559V11.5915C88.559 9.9395 89.455 9.1275 90.757 9.1275C92.045 9.1275 92.899 9.9255 92.899 11.4935V15.8335ZM99.1521 14.3775L96.7441 8.1615H95.3301L98.4241 15.7495L96.9121 19.4455H98.2281L102.848 8.1615H101.532L99.1521 14.3775ZM104.409 13.7335C104.409 15.2735 105.179 15.8335 106.537 15.8335H107.685V14.7555H106.747C105.963 14.7555 105.683 14.4895 105.683 13.7335V9.2115H107.685V8.1615H105.683V6.2295H104.409V8.1615H103.415V9.2115H104.409V13.7335ZM109.228 15.8335H110.502V11.5915C110.502 9.9395 111.398 9.1275 112.7 9.1275C113.988 9.1275 114.842 9.9255 114.842 11.4935V15.8335H116.102V11.3115C116.102 9.1135 114.744 8.0215 113.036 8.0215C111.958 8.0215 111.006 8.4555 110.502 9.2675V5.4735H109.228V15.8335ZM118.183 15.8335H119.457V8.1615H118.183V15.8335ZM118.841 6.9155C119.303 6.9155 119.681 6.5375 119.681 6.0475C119.681 5.5575 119.303 5.1795 118.841 5.1795C118.351 5.1795 117.973 5.5575 117.973 6.0475C117.973 6.5375 118.351 6.9155 118.841 6.9155ZM127.243 15.8335H128.503V11.3115C128.503 9.1135 127.145 8.0215 125.367 8.0215C124.331 8.0215 123.407 8.4555 122.903 9.2535V8.1615H121.629V15.8335H122.903V11.5915C122.903 9.9395 123.799 9.1275 125.101 9.1275C126.389 9.1275 127.243 9.9255 127.243 11.4935V15.8335ZM130.108 11.9695C130.108 14.3495 131.69 15.9595 133.748 15.9595C135.148 15.9595 136.142 15.2175 136.604 14.3915V16.0015C136.604 17.6395 135.582 18.5075 134.224 18.5075C132.964 18.5075 132.054 17.8775 131.774 16.9535H130.514C130.766 18.5915 132.208 19.6135 134.224 19.6135C136.478 19.6135 137.892 18.1155 137.892 16.0015V8.1615H136.604V9.5615C136.156 8.7355 135.148 8.0355 133.748 8.0355C131.69 8.0355 130.108 9.5755 130.108 11.9695ZM136.604 11.9835C136.604 13.7895 135.4 14.8395 134 14.8395C132.6 14.8395 131.41 13.7755 131.41 11.9695C131.41 10.1635 132.6 9.1415 134 9.1415C135.4 9.1415 136.604 10.2055 136.604 11.9835Z" fill="#5A5881"/>
<path d="M5.98706 13.807C7.31543 13.8067 8.60551 13.362 9.65189 12.5438L12.9418 15.8335L14 14.7753L10.7101 11.4856C11.5288 10.4392 11.9738 9.14888 11.9741 7.82024C11.9741 4.5193 9.28818 1.8335 5.98706 1.8335C2.68595 1.8335 0 4.5193 0 7.82024C0 11.1212 2.68595 13.807 5.98706 13.807ZM5.98706 3.33018C8.46346 3.33018 10.4774 5.34397 10.4774 7.82024C10.4774 10.2965 8.46346 12.3103 5.98706 12.3103C3.51066 12.3103 1.49677 10.2965 1.49677 7.82024C1.49677 5.34397 3.51066 3.33018 5.98706 3.33018Z" fill="#5A5881"/>
</svg>
