<svg width="28" height="28" viewBox="0 0 28 28" fill="none" xmlns="http://www.w3.org/2000/svg">
<path d="M13.9993 0C13.6124 0.0014653 13.2419 0.156546 12.9693 0.431293C12.6967 0.706041 12.5445 1.07751 12.546 1.46432V5.14573C12.5467 5.53112 12.7001 5.90061 12.9722 6.17345C13.2446 6.44625 13.6139 6.6001 13.9993 6.60157C14.3867 6.60328 14.7589 6.45064 15.0337 6.17736C15.3085 5.90432 15.4633 5.53308 15.4641 5.14577V3.52166C20.797 4.32881 25.0815 8.43442 25.0815 13.9983C25.0815 20.1351 20.1372 25.0788 13.9997 25.0788C7.86219 25.0788 2.91785 20.1351 2.91785 13.9983C2.91785 11.5526 3.70214 9.30433 5.03792 7.4736C5.26556 7.16246 5.36083 6.77368 5.30269 6.39243C5.24432 6.0112 5.03768 5.66856 4.72749 5.43924C4.41387 5.20918 4.02161 5.11394 3.63737 5.17426C3.25317 5.23482 2.90905 5.44608 2.68138 5.76136C0.995319 8.07244 0 10.9247 0 13.9985C0 21.7123 6.28531 28 14 28C21.7147 28 28 21.7123 28 13.9985C28 6.28466 21.714 0 13.9993 0ZM8.64487 8.47094C8.4734 8.47582 8.30585 8.54225 8.17175 8.67608C7.88598 8.96182 7.91163 9.39826 8.17175 9.70742L13.5887 16.1527C14.1085 16.7715 15.0803 16.7242 15.6519 16.1527C16.2234 15.5812 16.2708 14.6097 15.6519 14.0898L9.2034 8.67633C9.03902 8.53835 8.83929 8.46532 8.64487 8.47094Z" fill="#191453"/>
</svg>
