<svg width="33" height="21" viewBox="0 0 33 21" fill="none" xmlns="http://www.w3.org/2000/svg">
<path d="M31.4242 0.483887H1.67583C1.11164 0.483887 0.650024 0.9455 0.650024 1.50969V19.9742C0.650024 20.5384 1.11164 21 1.67583 21H31.4242C31.9884 21 32.45 20.5384 32.45 19.9742V1.50969C32.45 0.9455 31.9884 0.483887 31.4242 0.483887ZM24.7565 17.4097C23.9152 17.4097 23.1715 16.9943 22.7049 16.3685C22.2382 16.9943 21.4945 17.4097 20.6533 17.4097C19.2378 17.4097 18.0887 16.2607 18.0887 14.8452C18.0887 13.4297 19.2378 12.2807 20.6533 12.2807C21.4945 12.2807 22.2382 12.696 22.7049 13.3218C23.1715 12.696 23.9152 12.2807 24.7565 12.2807C26.172 12.2807 27.321 13.4297 27.321 14.8452C27.321 16.2607 26.172 17.4097 24.7565 17.4097ZM30.3984 8.69034H2.70164V5.61292H30.3984V8.69034Z" fill="#191453"/>
</svg>
