<svg width="283" height="109" viewBox="0 0 283 109" fill="none" xmlns="http://www.w3.org/2000/svg">
<g opacity="0.05">
<path d="M68.468 23.1824H50.1979V50.1383H40.2541C30.4901 50.4977 22.8826 58.7043 23.242 68.4683C23.6014 77.6933 30.9693 85.1211 40.2541 85.4805H58.5243V58.5246H68.468C78.2321 58.1652 85.8396 49.9586 85.4802 40.1946C85.1208 30.9696 77.6929 23.5418 68.468 23.1824ZM41.4522 58.5246H50.138V77.1541H40.7933C35.6417 77.0343 31.5683 72.7214 31.6881 67.5698C31.808 62.5979 35.8214 58.5845 40.7933 58.4647H41.4522V58.5246ZM67.2101 50.1982H58.5243V31.5088H67.869C73.0206 31.389 77.3335 35.4623 77.4533 40.6139C77.5731 45.7655 73.4998 50.0784 68.3482 50.1982C68.1685 50.1982 68.0487 50.1982 67.869 50.1982H67.2101Z" fill="white"/>
<path d="M54.3312 0C24.3202 0 0 24.3202 0 54.3312C0 84.3421 24.3202 108.662 54.3312 108.662C84.3421 108.662 108.662 84.3421 108.662 54.3312C108.602 24.3202 84.3421 0.0599021 54.3312 0ZM100.336 54.3312C100.336 79.7296 79.7296 100.336 54.3312 100.336C28.9327 100.336 8.32639 79.7296 8.32639 54.3312C8.32639 28.9327 28.9327 8.32638 54.3312 8.32638C79.7296 8.38628 100.276 28.9327 100.336 54.3312Z" fill="white"/>
<path d="M167.067 23.3017C163.233 21.5047 158.98 20.6061 154.727 20.7259H133.941V87.5167H144.723V63.7955H154.607C158.98 63.9153 163.293 62.9569 167.246 61.04C170.721 59.3028 173.596 56.6672 175.573 53.3725C177.55 49.9581 178.568 46.0645 178.508 42.1709C178.568 38.1574 177.55 34.2039 175.453 30.7895C173.416 27.4949 170.481 24.9191 167.067 23.3017ZM144.723 29.9508H153.05C157.842 29.9508 161.676 31.0291 164.072 33.1257C169.163 37.6183 169.643 45.3457 165.15 50.4373C164.85 50.7968 164.491 51.1562 164.132 51.4557C161.735 53.4924 157.962 54.5706 153.05 54.5706H144.723V29.9508Z" fill="white"/>
<path d="M215.767 48.5208C214.27 46.3643 212.173 44.6271 209.777 43.489C207.201 42.231 204.446 41.632 200.852 41.632C196.898 41.5721 193.004 42.7702 189.71 44.9266C186.415 47.0831 183.78 50.0782 181.982 53.6124C180.185 57.2665 179.227 61.2799 179.287 65.2933C179.227 69.6063 180.125 73.8593 182.042 77.6931C185.457 84.7016 192.645 89.0146 200.432 88.8947C207.381 88.8947 212.533 86.4987 215.767 81.8263L215.947 87.517H225.951V43.0697H215.947L215.767 48.5208ZM212.473 54.9303C214.929 57.566 216.187 61.0403 216.187 65.2334C216.187 69.4266 214.929 72.9009 212.533 75.5965C210.136 78.2921 206.902 79.6099 203.008 79.6099C199.114 79.6099 195.88 78.2921 193.424 75.5965C190.968 72.9009 189.77 69.4266 189.77 65.2334C189.77 61.0403 191.028 57.566 193.484 54.9303C198.635 49.6589 207.141 49.599 212.353 54.8105C212.353 54.8105 212.413 54.8704 212.473 54.9303Z" fill="white"/>
<path d="M241.405 19.7674C239.668 19.7075 238.051 20.3664 236.793 21.5645C235.595 22.7625 234.876 24.4398 234.936 26.117C234.936 29.6513 237.811 32.5865 241.405 32.5865C244.939 32.5865 247.875 29.7112 247.875 26.117C247.935 24.3799 247.276 22.7625 246.018 21.5645C244.76 20.3664 243.142 19.7075 241.405 19.7674Z" fill="white"/>
<path d="M246.677 43.0095H236.314V87.5167H246.677V43.0095Z" fill="white"/>
<path d="M282.139 42.5903C281.24 42.4106 280.402 42.3507 279.503 42.3507C274.172 42.2309 269.26 45.1661 266.984 49.9583L266.924 43.0096H256.98V87.5169H267.343V66.5511C267.343 61.9986 268.361 58.4045 270.278 55.8287C272.195 53.2529 274.95 51.9949 278.485 51.9949C280.282 51.9949 282.019 52.3543 283.696 53.0133L283.876 53.0732L284.894 43.3091L284.774 43.2492C283.876 42.9497 283.037 42.7101 282.139 42.5903Z" fill="white"/>
<path d="M279.203 30.1904H301.188V87.5166H312.389V30.1904H334.373V20.7258H279.203V30.1904Z" fill="white"/>
</g>
</svg>
