<svg width="207" height="47" viewBox="0 0 207 47" fill="none" xmlns="http://www.w3.org/2000/svg">
<path d="M29.3547 9.93896H21.5216V21.4959H17.2584C13.0722 21.65 9.81056 25.1685 9.96465 29.3546C10.1187 33.3097 13.2776 36.4943 17.2584 36.6484H25.0914V25.0914H29.3547C33.5408 24.9373 36.8025 21.4189 36.6484 17.2327C36.4943 13.2776 33.3097 10.0931 29.3547 9.93896ZM17.772 25.0914H21.4959V33.0786H17.4895C15.2809 33.0272 13.5345 31.1781 13.5858 28.9694C13.6372 26.8378 15.3579 25.1171 17.4895 25.0657H17.772V25.0914ZM28.8153 21.5216H25.0914V13.5088H29.0978C31.3065 13.4574 33.1556 15.2038 33.207 17.4125C33.2583 19.6211 31.512 21.4702 29.3033 21.5216C29.2262 21.5216 29.1749 21.5216 29.0978 21.5216H28.8153Z" fill="#250CED"/>
<path d="M23.2937 0C10.4269 0 0 10.4269 0 23.2937C0 36.1604 10.4269 46.5874 23.2937 46.5874C36.1604 46.5874 46.5874 36.1604 46.5874 23.2937C46.5617 10.4269 36.1604 0.0256821 23.2937 0ZM43.0175 23.2937C43.0175 34.1829 34.1829 43.0175 23.2937 43.0175C12.4045 43.0175 3.56981 34.1829 3.56981 23.2937C3.56981 12.4045 12.4045 3.56981 23.2937 3.56981C34.1829 3.5955 42.9919 12.4045 43.0175 23.2937Z" fill="#250CED"/>
<path d="M71.627 9.99046C69.9834 9.22 68.1599 8.83477 66.3365 8.88613H57.4248V37.5217H62.0476V27.3516H66.2851C68.1599 27.4029 70.009 26.992 71.7041 26.1702C73.1936 25.4254 74.4264 24.2954 75.2739 22.8829C76.1214 21.419 76.558 19.7497 76.5323 18.0803C76.558 16.3596 76.1214 14.6646 75.2225 13.2007C74.3493 11.7882 73.0909 10.6839 71.627 9.99046ZM62.0476 12.8412H65.6174C67.672 12.8412 69.3156 13.3035 70.3429 14.2023C72.5259 16.1285 72.7313 19.4415 70.8052 21.6245C70.6768 21.7786 70.5227 21.9326 70.3686 22.0611C69.3413 22.9343 67.7233 23.3965 65.6174 23.3965H62.0476V12.8412Z" fill="#250CED"/>
<path d="M92.5073 20.8025C91.8653 19.878 90.9664 19.1332 89.9391 18.6452C88.8348 18.1059 87.6534 17.8491 86.1125 17.8491C84.4175 17.8234 82.7481 18.337 81.3356 19.2616C79.9231 20.1861 78.7931 21.4702 78.0226 22.9855C77.2522 24.5521 76.8412 26.2728 76.8669 27.9935C76.8412 29.8426 77.2265 31.666 78.0483 33.3097C79.5122 36.3145 82.594 38.1636 85.9327 38.1123C88.9118 38.1123 91.1205 37.085 92.5073 35.0818L92.5844 37.5216H96.8733V18.4654H92.5844L92.5073 20.8025ZM91.0948 23.5505C92.1478 24.6805 92.6871 26.1701 92.6871 27.9678C92.6871 29.7656 92.1478 31.2551 91.1205 32.4108C90.0932 33.5665 88.7064 34.1315 87.037 34.1315C85.3677 34.1315 83.9809 33.5665 82.9279 32.4108C81.8749 31.2551 81.3613 29.7656 81.3613 27.9678C81.3613 26.1701 81.9006 24.6805 82.9536 23.5505C85.1623 21.2905 88.8091 21.2648 91.0435 23.4991C91.0435 23.4991 91.0691 23.5248 91.0948 23.5505Z" fill="#250CED"/>
<path d="M103.499 8.47524C102.754 8.44956 102.061 8.73206 101.522 9.24571C101.008 9.75935 100.7 10.4784 100.726 11.1975C100.726 12.7128 101.958 13.9712 103.499 13.9712C105.014 13.9712 106.273 12.7385 106.273 11.1975C106.299 10.4528 106.016 9.75935 105.477 9.24571C104.937 8.73206 104.244 8.44956 103.499 8.47524Z" fill="#250CED"/>
<path d="M105.759 18.4397H101.316V37.5215H105.759V18.4397Z" fill="#250CED"/>
<path d="M120.962 18.26C120.577 18.183 120.217 18.1573 119.832 18.1573C117.546 18.1059 115.441 19.3643 114.465 21.4189L114.439 18.4398H110.176V37.5216H114.619V28.5329C114.619 26.581 115.055 25.0401 115.877 23.9358C116.699 22.8314 117.88 22.2921 119.396 22.2921C120.166 22.2921 120.911 22.4462 121.63 22.7287L121.707 22.7544L122.144 18.5682L122.092 18.5425C121.707 18.4141 121.347 18.3114 120.962 18.26Z" fill="#250CED"/>
<path d="M119.705 12.9438H129.13V37.5215H133.933V12.9438H143.358V8.88599H119.705V12.9438Z" fill="#250CED"/>
<path d="M151.216 18.4397H146.773V37.5215H151.216V18.4397Z" fill="#250CED"/>
<path d="M148.982 8.47524C148.237 8.44956 147.544 8.73206 147.004 9.24571C146.491 9.75935 146.182 10.4784 146.208 11.1975C146.208 12.7128 147.441 13.9712 148.982 13.9712C150.497 13.9712 151.755 12.7385 151.755 11.1975C151.781 10.4528 151.499 9.75935 150.959 9.24571C150.42 8.73206 149.701 8.44956 148.982 8.47524Z" fill="#250CED"/>
<path d="M177.72 17.8492C176.41 17.8235 175.101 18.1574 173.945 18.7738C172.892 19.3388 172.019 20.1863 171.428 21.2136C170.914 20.1863 170.144 19.3131 169.142 18.7224C168.064 18.106 166.805 17.7978 165.573 17.8235C164.314 17.7978 163.056 18.0547 161.9 18.6197C160.975 19.082 160.205 19.8011 159.666 20.6742L159.64 18.4142H155.377V37.496H159.82V27.0948C159.82 25.4768 160.205 24.167 160.975 23.2168C161.746 22.2665 162.902 21.7529 164.134 21.8043C165.418 21.8043 166.394 22.2152 166.985 22.9856C167.576 23.7561 167.884 25.0402 167.884 26.7609V37.5217H172.327V27.1461C172.327 25.4768 172.712 24.1413 173.457 23.2168C174.202 22.2922 175.255 21.8299 176.616 21.8299C177.9 21.8299 178.85 22.2409 179.467 23.037C180.083 23.8331 180.417 25.1172 180.417 26.7866V37.5474H184.86V26.0161C184.86 23.4222 184.243 21.3933 183.011 19.9808C181.778 18.5683 180.032 17.8492 177.72 17.8492Z" fill="#250CED"/>
<path d="M206.356 23.6532C205.971 22.4975 205.355 21.4189 204.533 20.4943C203.737 19.6211 202.735 18.9277 201.631 18.4911C199.139 17.5409 196.391 17.5665 193.926 18.5425C191.512 19.5184 189.637 21.4445 188.713 23.8587C188.199 25.1685 187.968 26.5553 187.968 27.9678C187.942 29.3803 188.225 30.7928 188.738 32.1026C189.2 33.3097 189.92 34.3883 190.818 35.2872C191.717 36.1861 192.796 36.8795 193.977 37.3418C196.751 38.3947 199.859 38.3177 202.581 37.1106C204.019 36.4172 205.252 35.3899 206.176 34.1058L206.253 34.0031L203.454 31.7174L203.377 31.8201C202.812 32.642 202.093 33.3354 201.245 33.8233C198.883 35.2102 195.878 34.8763 193.849 33.0272C193.31 32.5135 192.873 31.8972 192.539 31.2294C192.231 30.5874 192.051 29.8683 192.026 29.1492H206.947V29.0465C206.972 28.841 206.998 28.6099 206.998 28.3787V27.7367C207.024 26.4012 206.793 24.9887 206.356 23.6532ZM202.94 26.1701H192.026C192.077 25.5023 192.282 24.8346 192.591 24.2439C192.899 23.6275 193.31 23.0625 193.823 22.5746C194.337 22.0866 194.953 21.7014 195.621 21.4445C196.314 21.162 197.059 21.0336 197.804 21.0336C198.574 21.008 199.319 21.162 200.038 21.4445C200.629 21.7014 201.168 22.0866 201.631 22.5489C202.067 23.0368 202.401 23.6018 202.607 24.2182C202.812 24.8603 202.915 25.5023 202.94 26.1701Z" fill="#250CED"/>
</svg>
