<svg width="66" height="87" viewBox="0 0 66 87" fill="none" xmlns="http://www.w3.org/2000/svg">
<path opacity="0.15" d="M29.85 0.149992C24.05 0.149992 19 0.899994 14.7 2.4C10.5 3.8 6.5 5.65 2.7 7.95L6.15 17.55C10.45 15.15 14.25 13.3 17.55 12C20.85 10.6 24.9 9.9 29.7 9.9C35.9 9.9 40.75 11.25 44.25 13.95C47.85 16.55 49.65 20.4 49.65 25.5C49.65 29.7 48.35 33.65 45.75 37.35C43.15 41.05 38.75 45.55 32.55 50.85L0.75 78.45V87H65.85L63.9 77.7H16.5L38.85 58.95C46.95 52.15 52.7 46.1 56.1 40.8C59.5 35.5 61.2 30 61.2 24.3C61.2 16.9 58.35 11.05 52.65 6.75C47.05 2.34999 39.45 0.149992 29.85 0.149992Z" fill="#191453"/>
</svg>
