<svg width="49" height="49" viewBox="0 0 49 49" fill="none" xmlns="http://www.w3.org/2000/svg">
<circle opacity="0.2" cx="24.0306" cy="24.0306" r="24.0306" fill="#250CED"/>
<path d="M23.446 15C22.8511 15 22.2807 15.2604 21.86 15.724C21.4394 16.1875 21.2031 16.8162 21.2031 17.4717V24.063C21.2031 24.7185 21.4394 25.3472 21.86 25.8107C22.2807 26.2743 22.8511 26.5347 23.446 26.5347C24.0408 26.5347 24.6113 26.2743 25.0319 25.8107C25.4525 25.3472 25.6888 24.7185 25.6888 24.063V17.4717C25.6888 16.8162 25.4525 16.1875 25.0319 15.724C24.6113 15.2604 24.0408 15 23.446 15Z" fill="white" stroke="white" stroke-width="1.28163" stroke-linecap="round" stroke-linejoin="round"/>
<path d="M29.5347 22.0491V23.7579C29.5347 25.3442 28.9271 26.8654 27.8455 27.9871C26.7639 29.1087 25.2969 29.7389 23.7673 29.7389C22.2378 29.7389 20.7708 29.1087 19.6892 27.9871C18.6076 26.8654 18 25.3442 18 23.7579V22.0491" stroke="white" stroke-width="1.28163" stroke-linecap="round" stroke-linejoin="round"/>
<path d="M23.7656 29.7388V32.9429" stroke="white" stroke-width="1.28163" stroke-linecap="round" stroke-linejoin="round"/>
<path d="M19.9219 32.9429H26.9709" stroke="white" stroke-width="1.28163" stroke-linecap="round" stroke-linejoin="round"/>
</svg>
