<svg width="18" height="18" viewBox="0 0 18 18" fill="none" xmlns="http://www.w3.org/2000/svg">
<path d="M3.1663 3.16629L3.16629 3.1663C1.61918 4.71351 0.75 6.81197 0.75 9C0.75 11.188 1.61918 13.2865 3.16629 14.8337L3.1663 14.8337C4.71351 16.3808 6.81197 17.25 9 17.25C11.188 17.25 13.2865 16.3808 14.8337 14.8337L14.8337 14.8337C16.3808 13.2865 17.25 11.188 17.25 9C17.25 7.55185 16.8688 6.12922 16.1447 4.87505C15.4207 3.62087 14.3792 2.57943 13.125 1.85536C11.8709 1.13129 10.4482 0.75 9 0.75C6.81194 0.75 4.71351 1.61918 3.1663 3.16629Z" fill="#FF1D1D" stroke="#FF1D1D" stroke-width="0.5"/>
<path d="M8.99916 9.96418L6.28406 12.6844L6.2839 12.6846C6.11069 12.8576 5.85837 12.9253 5.62181 12.8619C5.62181 12.8619 5.6218 12.8619 5.62179 12.8619L5.66062 12.7171C5.47574 12.6675 5.33146 12.5232 5.28193 12.3384L8.99916 9.96418ZM8.99916 9.96418L11.7143 12.6844L11.7144 12.6846C11.8876 12.8577 12.14 12.9253 12.3765 12.8619M8.99916 9.96418L12.8613 12.3772M12.3765 12.8619C12.3765 12.8619 12.3765 12.8619 12.3765 12.8619L12.3377 12.7171L12.3765 12.8619ZM12.3765 12.8619C12.6132 12.7985 12.7979 12.6138 12.8613 12.3772M12.8613 12.3772L12.7164 12.3384M12.8613 12.3772L12.7164 12.3384M12.7164 12.3384C12.7659 12.1536 12.7131 11.9565 12.5778 11.8211L9.85735 9.10579L9.96352 8.99982M12.7164 12.3384L12.8613 12.3772C12.9247 12.1406 12.857 11.8883 12.6839 11.7151L12.6838 11.7149L9.96352 8.99982M9.96352 8.99982L12.6834 6.28506C12.6835 6.28499 12.6836 6.28493 12.6836 6.28487C12.8129 6.15659 12.8856 5.98202 12.8856 5.79986C12.8856 5.61782 12.813 5.44336 12.6839 5.3151C12.6837 5.31496 12.6836 5.31481 12.6835 5.31467L12.6769 5.30812L9.96352 8.99982ZM6.28391 5.31505L6.28406 5.3152L8.99916 8.03547L11.7139 5.31554C11.714 5.31546 11.7141 5.31538 11.7142 5.3153L6.28391 5.31505ZM6.28391 5.31505C6.11071 5.142 5.85838 5.0743 5.62181 5.1377L6.28391 5.31505ZM5.62179 5.13771C5.38516 5.2011 5.20044 5.38581 5.13705 5.62245L5.62179 5.13771Z" fill="white" stroke="white" stroke-width="0.3"/>
</svg>
