<svg width="50" height="50" viewBox="0 0 50 50" fill="none" xmlns="http://www.w3.org/2000/svg">
<path d="M24.5021 49.0042C18.0038 49.0042 11.7719 46.4228 7.17647 41.8277C2.58154 37.2324 0 30.9997 0 24.5021C0 18.0045 2.58144 11.7719 7.17647 7.17647C11.7718 2.58154 18.0045 0 24.5021 0C30.9997 0 37.2323 2.58144 41.8277 7.17647C46.4227 11.7718 49.0042 18.0045 49.0042 24.5021C49.0042 28.8033 47.8721 33.0283 45.7215 36.7533C43.5709 40.4782 40.478 43.5711 36.753 45.7217C33.0281 47.8723 28.8031 49.0044 24.5019 49.0044L24.5021 49.0042ZM24.5021 3.49993C18.9321 3.49993 13.5901 5.71264 9.65171 9.65131C5.71304 13.59 3.50033 18.9319 3.50033 24.5017C3.50033 30.0715 5.71304 35.4137 9.65171 39.3521C13.5904 43.2908 18.9323 45.5035 24.5021 45.5035C30.0719 45.5035 35.4141 43.2908 39.3525 39.3521C43.2912 35.4134 45.5039 30.0715 45.5039 24.5017C45.5039 18.9319 43.2912 13.5897 39.3525 9.65131C35.4138 5.71264 30.0719 3.49993 24.5021 3.49993Z" fill="#250CED"/>
<path d="M24.5021 38.6602C24.038 38.6602 23.5927 38.4758 23.2645 38.1477C22.9364 37.8195 22.752 37.3742 22.752 36.9101V20.3705C22.752 19.7454 23.0856 19.1677 23.627 18.8548C24.1685 18.5422 24.8357 18.5422 25.3772 18.8548C25.9187 19.1677 26.2523 19.7455 26.2523 20.3705V36.9101C26.2523 37.3742 26.0679 37.8195 25.7397 38.1477C25.4116 38.4758 24.9662 38.6602 24.5021 38.6602Z" fill="#250CED"/>
<path d="M24.5021 13.844C24.038 13.844 23.5927 13.6596 23.2645 13.3315C22.9364 13.0029 22.752 12.5579 22.752 12.0938C22.7617 11.6309 22.9426 11.1883 23.2594 10.8511C23.588 10.5198 24.0353 10.3335 24.5021 10.3335C24.969 10.3335 25.4163 10.5198 25.7449 10.8511C26.0617 11.1883 26.2426 11.6309 26.2523 12.0938C26.2523 12.5579 26.0679 13.0029 25.7398 13.3315C25.4116 13.6596 24.9663 13.844 24.5022 13.844H24.5021Z" fill="#250CED"/>
</svg>
