<svg width="32" height="13" viewBox="0 0 32 13" fill="none" xmlns="http://www.w3.org/2000/svg">
<path d="M3.48004 11.9067L1.00416 9.43083C0.773382 9.20192 0.592956 8.92733 0.47444 8.62466C0.355923 8.32198 0.301928 7.99789 0.315913 7.67313C0.329897 7.34838 0.411553 7.03013 0.55565 6.73876C0.699748 6.44739 0.903111 6.18933 1.15271 5.98111C3.96822 3.71749 7.27545 2.14585 10.8086 1.39248C14.0698 0.665528 17.451 0.665528 20.7122 1.39248C24.26 2.15073 27.5792 3.73404 30.4011 6.01412C30.65 6.22172 30.8528 6.47885 30.9969 6.76916C31.1409 7.05947 31.2229 7.37658 31.2376 7.70031C31.2524 8.02405 31.1996 8.3473 31.0825 8.6495C30.9655 8.9517 30.7869 9.22623 30.5579 9.45559L28.082 11.9315C27.6855 12.3359 27.1553 12.5824 26.5905 12.6249C26.0256 12.6674 25.4646 12.5031 25.0119 12.1626C24.1151 11.4747 23.1433 10.8905 22.1152 10.4212C21.7087 10.2368 21.3637 9.93983 21.1209 9.56538C20.8781 9.19093 20.7477 8.75471 20.7452 8.30844V6.21219C17.5042 5.32088 14.0827 5.32088 10.8417 6.21219V8.30843C10.8392 8.75471 10.7088 9.19093 10.466 9.56538C10.2232 9.93983 9.8781 10.2368 9.47167 10.4212C8.4435 10.8905 7.47173 11.4747 6.57489 12.1626C6.11743 12.5069 5.54937 12.6711 4.97875 12.6239C4.40813 12.5768 3.87474 12.3215 3.48004 11.9067Z" fill="white"/>
</svg>
