<svg width="18" height="24" viewBox="0 0 18 24" fill="none" xmlns="http://www.w3.org/2000/svg">
<path fill-rule="evenodd" clip-rule="evenodd" d="M1.9762 4.46998H11.6681C12.7547 4.46998 13.6443 5.35959 13.6443 6.44618V22.0188C13.6443 23.1054 12.7547 23.995 11.6681 23.995H1.9762C0.889603 23.995 0 23.1061 0 22.0188V6.44618C0 5.35959 0.889603 4.46998 1.9762 4.46998ZM6.21049 0H15.9024C16.989 0 17.8786 0.889603 17.8786 1.9762V17.5483C17.8786 18.6349 16.989 19.5245 15.9024 19.5245H14.6218V6.44524C14.6218 4.82082 13.2926 3.49233 11.6689 3.49233H4.23519V1.9762C4.23519 0.889603 5.12479 0 6.21138 0H6.21049Z" fill="#250CED"/>
</svg>
