<svg width="49" height="49" viewBox="0 0 49 49" fill="none" xmlns="http://www.w3.org/2000/svg">
<circle opacity="0.2" cx="24.0306" cy="24.0306" r="24.0306" fill="#250CED"/>
<path d="M29.2603 16.8507C28.9653 16.8507 28.6855 16.9159 28.4337 17.0319C28.2629 16.1116 27.4547 15.4124 26.4856 15.4124C26.1812 15.4124 25.8927 15.4815 25.6347 15.6047C25.421 14.741 24.6397 14.0986 23.7109 14.0986C22.7821 14.0986 22.0009 14.741 21.7872 15.6047C21.5292 15.4815 21.2407 15.4124 20.9363 15.4124C19.8434 15.4124 18.9544 16.3014 18.9544 17.3943V22.2389C18.7114 22.1324 18.4434 22.073 18.1616 22.073C17.0688 22.073 16.1797 22.962 16.1797 24.0549V28.1305C16.1797 30.9937 18.5091 33.3231 21.3723 33.3231H26.0496C28.9128 33.3231 31.2422 30.9937 31.2422 28.1305V18.8326C31.2422 17.7397 30.3531 16.8507 29.2603 16.8507ZM30.053 28.1305C30.053 30.338 28.2571 32.134 26.0496 32.134H21.3723C19.1648 32.134 17.3688 30.338 17.3688 28.1305V24.0549C17.3688 23.6177 17.7245 23.2621 18.1616 23.2621C18.5987 23.2621 18.9544 23.6177 18.9544 24.0549V27.2259H20.1435V17.3943C20.1435 16.9571 20.4991 16.6015 20.9363 16.6015C21.3734 16.6015 21.729 16.9571 21.729 17.3943V23.6585H22.9182V16.0805C22.9182 15.6434 23.2738 15.2878 23.7109 15.2878C24.1481 15.2878 24.5037 15.6434 24.5037 16.0805V23.6585H25.6928V17.3943C25.6928 16.9571 26.0485 16.6015 26.4856 16.6015C26.9227 16.6015 27.2784 16.9571 27.2784 17.3943V23.6585H28.4675V18.8325C28.4675 18.3954 28.8231 18.0398 29.2603 18.0398C29.6974 18.0398 30.053 18.3954 30.053 18.8325V28.1305Z" fill="white"/>
</svg>
