<svg width="100" height="100" viewBox="0 0 100 100" fill="none" xmlns="http://www.w3.org/2000/svg">
<circle cx="50" cy="50" r="50" fill="#250CED"/>
<path d="M65.416 32.6397L51.3795 27.2748C50.9489 27.0937 50.4876 27 50.0211 27C49.5547 27 49.0933 27.0936 48.6627 27.2748L34.264 33.5107C33.5924 33.8055 33.0208 34.2921 32.6185 34.9109C32.2163 35.5301 32.0015 36.2547 32 36.9956V50.7508C32.0278 54.4572 33.0011 58.0941 34.8259 61.3071C36.6503 64.5207 39.2645 67.2022 42.4142 69.0905L48.2549 72.4837C48.8336 72.8219 49.489 73 50.1571 73C50.8246 73 51.4805 72.8219 52.0587 72.4837L57.6735 69.0449C60.7996 67.1382 63.391 64.4507 65.1987 61.239C67.0063 58.0279 67.97 54.4009 67.9968 50.7047V36.4452C68.0306 35.6136 67.7972 34.7939 67.3317 34.1076C66.8663 33.4214 66.1942 32.9066 65.4159 32.64L65.416 32.6397ZM59.7111 43.6894L49.5228 58.1782C49.3464 58.4238 49.1231 58.6311 48.8668 58.7887C48.6101 58.9458 48.3251 59.0502 48.0285 59.0952H47.7116C47.2204 59.1059 46.7403 58.9437 46.3533 58.6367L40.6029 54.0516C40.3679 53.8792 40.1693 53.6612 40.0193 53.4099C39.8687 53.1592 39.7696 52.8798 39.7277 52.5891C39.6852 52.299 39.7009 52.0027 39.7737 51.7182C39.8459 51.4342 39.9743 51.1671 40.1501 50.9337C40.3245 50.6942 40.5438 50.4926 40.796 50.3396C41.0476 50.1871 41.3271 50.0863 41.6177 50.0433C41.9083 50.0008 42.2044 50.0172 42.4889 50.0914C42.7734 50.1651 43.0402 50.2961 43.2742 50.4752L47.2139 53.5016L56.0883 41.0299C56.2581 40.7894 56.4724 40.5847 56.72 40.4276C56.9676 40.271 57.2436 40.165 57.5311 40.1159C57.8192 40.0668 58.1138 40.076 58.3988 40.1425C58.6833 40.2085 58.9521 40.3314 59.1901 40.5028C59.4282 40.6742 59.6298 40.8917 59.785 41.1424C59.9396 41.3932 60.0442 41.6726 60.0927 41.9637C60.1412 42.2554 60.1321 42.5543 60.0669 42.8424C60.0012 43.1305 59.8805 43.4027 59.7112 43.6437L59.7111 43.6894Z" fill="white"/>
</svg>
