<svg width="25" height="28" viewBox="0 0 25 28" fill="none" xmlns="http://www.w3.org/2000/svg">
<path fill-rule="evenodd" clip-rule="evenodd" d="M25 22.4361H18.9089C16.9616 22.4361 15.3832 20.858 15.3832 18.9105V16.3463C15.3832 14.3991 16.9614 12.8207 18.9089 12.8207H25V11.2181C25 10.2833 24.6283 9.38599 23.9679 8.72451C23.3064 8.0643 22.4088 7.69238 21.4743 7.69238H3.52567C2.59096 7.69238 1.6936 8.06411 1.03213 8.72451C0.371918 9.38599 0 10.2836 0 11.2181V24.0382C0 24.9729 0.371732 25.8703 1.03213 26.5318C1.6936 27.192 2.59117 27.5639 3.52567 27.5639H21.4743C22.409 27.5639 23.3064 27.1921 23.9679 26.5318C24.6281 25.8703 25 24.9727 25 24.0382V22.4356V22.4361ZM25 14.7439V20.5131H18.9089C18.0242 20.5131 17.3063 19.7952 17.3063 18.9105V16.3463C17.3063 15.4616 18.0242 14.7437 18.9089 14.7437H25V14.7439ZM19.5513 16.3466C20.2589 16.3466 20.8332 16.9209 20.8332 17.6285C20.8332 18.3361 20.2589 18.9105 19.5513 18.9105C18.8437 18.9105 18.2693 18.3361 18.2693 17.6285C18.2693 16.9209 18.8437 16.3466 19.5513 16.3466Z" fill="white"/>
<path fill-rule="evenodd" clip-rule="evenodd" d="M17.7414 6.41044H21.4746C21.7194 6.41044 21.963 6.42975 22.2028 6.46559L22.8104 5.16045C23.0347 4.67968 22.8272 4.10793 22.3464 3.88365L14.2119 0.0901287C13.7311 -0.134154 13.1594 0.0746756 12.9351 0.555441L12.2466 2.03097L16.4773 4.00276C17.4133 4.43995 17.9067 5.43988 17.7415 6.41042L17.7414 6.41044Z" fill="#C7C7D2"/>
<path fill-rule="evenodd" clip-rule="evenodd" d="M4.3916 6.41045H16.4156C16.6157 5.93613 16.4066 5.38475 15.9361 5.16563L7.80163 1.37211C7.32087 1.14783 6.74912 1.35666 6.52484 1.83742L4.3916 6.41045Z" fill="#C7C7D2"/>
</svg>
