<svg width="17" height="12" viewBox="0 0 17 12" fill="none" xmlns="http://www.w3.org/2000/svg">
<path d="M15.3739 7.50007H14.3477C13.9432 7.50007 13.5785 7.25634 13.4238 6.88256L12.4185 4.45407C12.3601 4.31354 12.2616 4.19485 12.1363 4.11393C12.0109 4.03301 11.8647 3.99372 11.7172 4.00134C11.5697 4.00896 11.4279 4.06312 11.311 4.15655C11.194 4.24998 11.1074 4.37822 11.0629 4.52407L9.91248 8.29671C9.61966 9.25701 8.25262 9.23518 7.99061 8.26601L6.17445 1.54807C6.13235 1.3921 6.04264 1.25443 5.91873 1.15565C5.79481 1.05687 5.64336 1.00229 5.487 1.00007C5.3304 0.99791 5.17735 1.0484 5.05079 1.14395C4.92423 1.23951 4.831 1.37499 4.78507 1.53007L3.2239 6.78486C3.09786 7.20913 2.70791 7.50007 2.26531 7.50007H1.3739" stroke="#444444" stroke-width="2" stroke-linecap="round"/>
</svg>
