<svg width="22" height="22" viewBox="0 0 22 22" fill="none" xmlns="http://www.w3.org/2000/svg">
<path d="M11.1219 2.43849V2.44448H4.8782C3.54217 2.44448 2.44433 3.5411 2.44433 4.88251V17.1177C2.44433 18.4618 3.53758 19.5557 4.88236 19.5557H17.1175C18.461 19.5557 19.5555 18.4606 19.5555 17.1117V12.1947H19.5558C19.5706 11.5325 20.112 11.0002 20.7778 11.0002C21.4435 11.0002 21.985 11.5325 21.9997 12.1947H22V17.1117C22 19.8115 19.8101 22 17.1176 22H4.88243C2.18598 22 0 19.8101 0 17.1176V4.88243C0 2.18598 2.19741 0 4.8785 0H11.1222V0.00598479C11.7399 0.0672155 12.2222 0.588356 12.2222 1.22215C12.2222 1.85611 11.7399 2.37707 11.1222 2.43848L11.1219 2.43849ZM14.1854 11.1312L15.6979 12.6437L11.8657 16.4759C10.5071 17.8345 8.1564 17.3902 6.5291 15.7628C4.90888 14.1426 4.45816 11.7844 5.81183 10.4306L9.64831 6.59409L11.1608 8.10659L7.32433 11.9431C6.98073 12.2867 7.18253 13.3428 8.066 14.2262C8.95574 15.1161 10.003 15.314 10.3533 14.9636L14.1854 11.1312ZM17.2377 11.1038L15.7253 9.59143L19.5575 5.75922C19.9079 5.40887 19.7101 4.36167 18.8202 3.47174C17.9367 2.58828 16.8806 2.38647 16.5368 2.73006L12.7005 6.56655L11.188 5.0542L15.0245 1.21772C16.3783 -0.136108 18.7365 0.314617 20.3567 1.935C21.9842 3.56245 22.4283 5.91307 21.0698 7.27157L17.2377 11.1038ZM14.232 6.54741C14.6525 6.12694 15.3291 6.12171 15.7496 6.54235C16.1673 6.95992 16.1742 7.63009 15.7445 8.05976L12.6567 11.1475C12.2364 11.568 11.5598 11.5731 11.1393 11.1526C10.7216 10.7349 10.7147 10.0649 11.1444 9.63504L14.232 6.54741Z" fill="#250CED"/>
</svg>
