<svg width="12" height="12" viewBox="0 0 12 12" fill="none" xmlns="http://www.w3.org/2000/svg">
<path d="M6 0C4.40875 0 2.88249 0.632176 1.75737 1.75737C0.632176 2.88265 0 4.40875 0 6C0 7.59125 0.632176 9.11751 1.75737 10.2426C2.88265 11.3678 4.40875 12 6 12C7.59125 12 9.11751 11.3678 10.2426 10.2426C11.3678 9.11735 12 7.59125 12 6C11.9981 4.40929 11.3654 2.88412 10.2405 1.75947C9.11572 0.634654 7.59055 0.00191689 6 0ZM6 9.81821C5.85536 9.81821 5.71656 9.76077 5.61428 9.6585C5.51201 9.55622 5.45458 9.41744 5.45458 9.27278C5.45458 9.12813 5.51201 8.98934 5.61428 8.88707C5.71656 8.78479 5.85535 8.72736 6 8.72736C6.14465 8.72736 6.28344 8.78479 6.38572 8.88707C6.48799 8.98934 6.54542 9.12813 6.54542 9.27278C6.54542 9.41744 6.48799 9.55622 6.38572 9.6585C6.28344 9.76077 6.14465 9.81821 6 9.81821ZM7.02766 3.32744L6.54222 7.69444L6.54213 7.69434C6.52241 7.87396 6.41493 8.03211 6.2553 8.11676C6.09559 8.20132 5.90437 8.20132 5.74466 8.11676C5.58504 8.03211 5.47756 7.87395 5.45783 7.69434L4.97229 3.32758C4.94042 3.03528 5.0342 2.74316 5.23035 2.5241C5.43133 2.31426 5.70938 2.19554 5.99996 2.19554C6.29053 2.19554 6.56857 2.31425 6.76956 2.5241C6.96571 2.74316 7.05948 3.03528 7.02762 3.32758L7.02766 3.32744Z" fill="black"/>
</svg>
