<svg width="73" height="49" viewBox="0 0 73 49" fill="none" xmlns="http://www.w3.org/2000/svg">
<rect x="0.433594" width="72.4122" height="48.0612" rx="24.0306" fill="#FF4343"/>
<path d="M24.48 27.9067L22.0042 25.4308C21.7734 25.2019 21.593 24.9273 21.4744 24.6247C21.3559 24.322 21.3019 23.9979 21.3159 23.6731C21.3299 23.3484 21.4116 23.0301 21.5556 22.7388C21.6997 22.4474 21.9031 22.1893 22.1527 21.9811C24.9682 19.7175 28.2754 18.1458 31.8086 17.3925C35.0698 16.6655 38.451 16.6655 41.7122 17.3925C45.26 18.1507 48.5792 19.734 51.4011 22.0141C51.65 22.2217 51.8528 22.4789 51.9969 22.7692C52.1409 23.0595 52.2229 23.3766 52.2376 23.7003C52.2524 24.024 52.1996 24.3473 52.0825 24.6495C51.9655 24.9517 51.7869 25.2262 51.5579 25.4556L49.082 27.9315C48.6855 28.3359 48.1553 28.5824 47.5905 28.6249C47.0256 28.6674 46.4646 28.5031 46.0119 28.1626C45.1151 27.4747 44.1433 26.8906 43.1152 26.4212C42.7087 26.2368 42.3637 25.9398 42.1209 25.5654C41.8781 25.1909 41.7477 24.7547 41.7452 24.3084V22.2122C38.5042 21.3209 35.0827 21.3209 31.8417 22.2122L31.8417 24.3084C31.8392 24.7547 31.7088 25.1909 31.466 25.5654C31.2232 25.9398 30.8781 26.2368 30.4717 26.4212C29.4435 26.8905 28.4717 27.4747 27.5749 28.1626C27.1174 28.5069 26.5494 28.6711 25.9788 28.6239C25.4081 28.5768 24.8747 28.3215 24.48 27.9067Z" fill="white"/>
</svg>
