<svg width="14" height="15" viewBox="0 0 14 15" fill="none" xmlns="http://www.w3.org/2000/svg">
<path d="M5.98706 12.807C7.31543 12.8067 8.60551 12.362 9.65189 11.5438L12.9418 14.8335L14 13.7753L10.7101 10.4856C11.5288 9.43919 11.9738 8.14888 11.9741 6.82024C11.9741 3.5193 9.28818 0.833496 5.98706 0.833496C2.68595 0.833496 0 3.5193 0 6.82024C0 10.1212 2.68595 12.807 5.98706 12.807ZM5.98706 2.33018C8.46346 2.33018 10.4774 4.34397 10.4774 6.82024C10.4774 9.29651 8.46346 11.3103 5.98706 11.3103C3.51066 11.3103 1.49677 9.29651 1.49677 6.82024C1.49677 4.34397 3.51066 2.33018 5.98706 2.33018Z" fill="#5A5881"/>
</svg>
