<svg width="23" height="24" viewBox="0 0 23 24" fill="none" xmlns="http://www.w3.org/2000/svg">
<path d="M19.9332 3.21745C19.8367 3.1167 19.7148 3.04695 19.5818 3.01639C19.4487 2.98584 19.3102 2.99574 19.1823 3.04495L3.44978 9.04495C3.3141 9.09892 3.19729 9.19491 3.11486 9.32016C3.03243 9.44542 2.98828 9.59401 2.98828 9.7462C2.98828 9.89839 3.03243 10.047 3.11486 10.1722C3.19729 10.2975 3.3141 10.3935 3.44978 10.4474L9.59263 13.0199L14.1265 8.24995L15.1348 9.30745L10.5795 14.0849L13.0395 20.5275C13.0925 20.667 13.1842 20.7866 13.3028 20.8709C13.4214 20.9551 13.5613 21.0001 13.7046 20.9999C13.8491 20.9968 13.9893 20.9479 14.1067 20.8595C14.2242 20.7711 14.3133 20.6475 14.3625 20.5049L20.0834 4.00495C20.1321 3.87226 20.1439 3.72777 20.1173 3.58834C20.0907 3.44891 20.0268 3.32028 19.9332 3.21745Z" fill="#002DE3"/>
</svg>
