<svg width="22" height="15" viewBox="0 0 22 15" fill="none" xmlns="http://www.w3.org/2000/svg">
<path d="M21.6235 1.9354C21.6235 0.867609 20.7559 0 19.6881 0H9.25457C8.18679 0 7.31918 0.867609 7.31918 1.9354V9.81061C7.31918 10.8784 8.18679 11.746 9.25457 11.746H11.2123V13.9706C11.2123 14.3266 11.635 14.5046 11.8797 14.2376L14.3713 11.7684C14.3713 11.7684 14.3713 11.7462 14.3935 11.7462H19.7104C20.7781 11.7462 21.6458 10.8786 21.6458 9.81078V1.93556L21.6235 1.9354ZM13.9485 2.69173H14.9719C15.0832 2.69173 15.1945 2.78065 15.1945 2.91426L15.0832 7.09658C15.0832 7.20784 14.9943 7.27457 14.9052 7.27457H14.0598C13.9485 7.27457 13.8818 7.18565 13.8818 7.09658L13.7706 2.91426C13.7484 2.78081 13.8373 2.69173 13.9485 2.69173ZM15.1943 8.74275C15.1943 8.92074 15.0608 9.05419 14.8828 9.05419H14.0598C13.8818 9.05419 13.7483 8.92074 13.7483 8.74275V8.20879C13.7483 8.0308 13.8818 7.89735 14.0598 7.89735H14.8828C15.0608 7.89735 15.1943 8.03081 15.1943 8.20879V8.74275ZM0 2.33579C0 1.84637 0.400356 1.44601 0.889776 1.44601L4.80522 1.44586C5.29464 1.44586 5.69499 1.84622 5.69499 2.33564C5.69499 2.82506 5.29464 3.22541 4.80522 3.22541L0.889776 3.22557C0.400514 3.22557 0 2.82505 0 2.33579ZM5.67283 5.87292C5.67283 6.36235 5.27247 6.7627 4.78305 6.7627H1.89098C1.40156 6.7627 1.00121 6.36235 1.00121 5.87292C1.00121 5.3835 1.40156 4.98315 1.89098 4.98315H4.78305C5.29468 4.98299 5.67283 5.3835 5.67283 5.87292ZM5.67283 9.41006C5.67283 9.89948 5.27247 10.2998 4.78305 10.2998H3.02551C2.53609 10.2998 2.13573 9.89948 2.13573 9.41006C2.13573 8.92064 2.53609 8.52028 3.02551 8.52028H4.80526C5.29468 8.52028 5.67283 8.92064 5.67283 9.41006Z" fill="#444444"/>
</svg>
