<svg width="17" height="17" viewBox="0 0 17 17" fill="none" xmlns="http://www.w3.org/2000/svg">
<path d="M12.6831 12.6831L12.6831 12.6831L12.6817 12.6846C10.3886 15.016 6.64664 15.045 4.31494 12.7565C1.98413 10.4689 1.95462 6.72265 4.24241 4.39079L4.3166 4.3166L4.3166 4.31661L4.31806 4.31513C6.61116 1.98368 10.3531 1.95472 12.6848 4.24322C15.0159 6.53114 15.0451 10.278 12.7565 12.6098L12.7564 12.6099L12.7563 12.61L12.7561 12.6102L12.756 12.6103L12.7558 12.6105L12.7557 12.6106L12.7555 12.6108L12.7554 12.6109L12.7552 12.611L12.7551 12.6112L12.7549 12.6113L12.7548 12.6115L12.7546 12.6116L12.7545 12.6118L12.7543 12.6119L12.7542 12.6121L12.7541 12.6122L12.7539 12.6124L12.7538 12.6125L12.7536 12.6127L12.7535 12.6128L12.7533 12.6129L12.7532 12.6131L12.753 12.6132L12.7529 12.6134L12.7527 12.6135L12.7526 12.6137L12.7524 12.6138L12.7523 12.614L12.7521 12.6141L12.752 12.6143L12.7519 12.6144L12.7517 12.6146L12.7516 12.6147L12.7514 12.6149L12.7513 12.615L12.7511 12.6151L12.751 12.6153L12.7508 12.6154L12.7507 12.6156L12.7505 12.6157L12.7504 12.6159L12.7502 12.616L12.7501 12.6162L12.75 12.6163L12.7498 12.6165L12.7497 12.6166L12.7495 12.6168L12.7494 12.6169L12.7492 12.6171L12.7491 12.6172L12.7489 12.6173L12.7488 12.6175L12.7486 12.6176L12.7485 12.6178L12.7483 12.6179L12.7482 12.6181L12.748 12.6182L12.7479 12.6184L12.7478 12.6185L12.7476 12.6187L12.7475 12.6188L12.7473 12.619L12.7472 12.6191L12.747 12.6192L12.7469 12.6194L12.7467 12.6195L12.7466 12.6197L12.7464 12.6198L12.7463 12.62L12.7461 12.6201L12.746 12.6203L12.7458 12.6204L12.7457 12.6206L12.7456 12.6207L12.7454 12.6209L12.7453 12.621L12.7451 12.6212L12.745 12.6213L12.7448 12.6214L12.7447 12.6216L12.7445 12.6217L12.7444 12.6219L12.7442 12.622L12.7441 12.6222L12.7439 12.6223L12.7438 12.6225L12.7436 12.6226L12.7435 12.6228L12.7434 12.6229L12.7432 12.6231L12.7431 12.6232L12.7429 12.6234L12.7428 12.6235L12.7426 12.6236L12.7425 12.6238L12.7423 12.6239L12.7422 12.6241L12.742 12.6242L12.7419 12.6244L12.7417 12.6245L12.7416 12.6247L12.7415 12.6248L12.7413 12.625L12.7412 12.6251L12.741 12.6253L12.7409 12.6254L12.7407 12.6255L12.7406 12.6257L12.7404 12.6258L12.7403 12.626L12.7401 12.6261L12.74 12.6263L12.7398 12.6264L12.7397 12.6266L12.7395 12.6267L12.7394 12.6269L12.7393 12.627L12.7391 12.6272L12.739 12.6273L12.7388 12.6275L12.7387 12.6276L12.7385 12.6277L12.7384 12.6279L12.7382 12.628L12.7381 12.6282L12.7379 12.6283L12.7378 12.6285L12.7376 12.6286L12.7375 12.6288L12.7373 12.6289L12.7372 12.6291L12.7371 12.6292L12.7369 12.6294L12.7368 12.6295L12.7366 12.6297L12.7365 12.6298L12.7363 12.6299L12.7362 12.6301L12.736 12.6302L12.7359 12.6304L12.7357 12.6305L12.7356 12.6307L12.7354 12.6308L12.7353 12.631L12.7352 12.6311L12.735 12.6313L12.7349 12.6314L12.7347 12.6316L12.7346 12.6317L12.7344 12.6319L12.7343 12.632L12.7341 12.6321L12.734 12.6323L12.7338 12.6324L12.7337 12.6326L12.7335 12.6327L12.7334 12.6329L12.7332 12.633L12.7331 12.6332L12.733 12.6333L12.7328 12.6335L12.7327 12.6336L12.7325 12.6338L12.7324 12.6339L12.7322 12.634L12.7321 12.6342L12.7319 12.6343L12.7318 12.6345L12.7316 12.6346L12.7315 12.6348L12.7313 12.6349L12.7312 12.6351L12.731 12.6352L12.7309 12.6354L12.7308 12.6355L12.7306 12.6357L12.7305 12.6358L12.7303 12.636L12.7302 12.6361L12.73 12.6362L12.7299 12.6364L12.7297 12.6365L12.7296 12.6367L12.7294 12.6368L12.7293 12.637L12.7291 12.6371L12.729 12.6373L12.7289 12.6374L12.7287 12.6376L12.7286 12.6377L12.7284 12.6379L12.7283 12.638L12.7281 12.6382L12.728 12.6383L12.7278 12.6384L12.7277 12.6386L12.7275 12.6387L12.7274 12.6389L12.7272 12.639L12.7271 12.6392L12.7269 12.6393L12.7268 12.6395L12.7267 12.6396L12.7265 12.6398L12.7264 12.6399L12.7262 12.6401L12.7261 12.6402L12.7259 12.6403L12.7258 12.6405L12.7256 12.6406L12.7255 12.6408L12.7253 12.6409L12.7252 12.6411L12.725 12.6412L12.7249 12.6414L12.7247 12.6415L12.7246 12.6417L12.7245 12.6418L12.7243 12.642L12.7242 12.6421L12.724 12.6423L12.7239 12.6424L12.7237 12.6425L12.7236 12.6427L12.7234 12.6428L12.7233 12.643L12.7231 12.6431L12.723 12.6433L12.7228 12.6434L12.7227 12.6436L12.7226 12.6437L12.7224 12.6439L12.7223 12.644L12.7221 12.6442L12.722 12.6443L12.7218 12.6445L12.7217 12.6446L12.7215 12.6447L12.7214 12.6449L12.7212 12.645L12.7211 12.6452L12.7209 12.6453L12.7208 12.6455L12.7206 12.6456L12.7205 12.6458L12.7204 12.6459L12.7202 12.6461L12.7201 12.6462L12.7199 12.6464L12.7198 12.6465L12.7196 12.6466L12.7195 12.6468L12.7193 12.6469L12.7192 12.6471L12.719 12.6472L12.7189 12.6474L12.7187 12.6475L12.7186 12.6477L12.7184 12.6478L12.7183 12.648L12.7182 12.6481L12.718 12.6483L12.7179 12.6484L12.7177 12.6486L12.7176 12.6487L12.7174 12.6488L12.7173 12.649L12.7171 12.6491L12.717 12.6493L12.7168 12.6494L12.7167 12.6496L12.7165 12.6497L12.7164 12.6499L12.7162 12.65L12.7161 12.6502L12.716 12.6503L12.7158 12.6505L12.7157 12.6506L12.7155 12.6508L12.7154 12.6509L12.7152 12.651L12.7151 12.6512L12.7149 12.6513L12.7148 12.6515L12.7146 12.6516L12.7145 12.6518L12.7143 12.6519L12.7142 12.6521L12.7141 12.6522L12.7139 12.6524L12.7138 12.6525L12.7136 12.6527L12.7135 12.6528L12.7133 12.6529L12.7132 12.6531L12.713 12.6532L12.7129 12.6534L12.7127 12.6535L12.7126 12.6537L12.7124 12.6538L12.7123 12.654L12.7121 12.6541L12.712 12.6543L12.7119 12.6544L12.7117 12.6546L12.7116 12.6547L12.7114 12.6549L12.7113 12.655L12.7111 12.6551L12.711 12.6553L12.7108 12.6554L12.7107 12.6556L12.7105 12.6557L12.7104 12.6559L12.7102 12.656L12.7101 12.6562L12.7099 12.6563L12.7098 12.6565L12.7097 12.6566L12.7095 12.6568L12.7094 12.6569L12.7092 12.6571L12.7091 12.6572L12.7089 12.6573L12.7088 12.6575L12.7086 12.6576L12.7085 12.6578L12.7083 12.6579L12.7082 12.6581L12.708 12.6582L12.7079 12.6584L12.7078 12.6585L12.7076 12.6587L12.7075 12.6588L12.7073 12.659L12.7072 12.6591L12.707 12.6593L12.7069 12.6594L12.7067 12.6595L12.7066 12.6597L12.7064 12.6598L12.7063 12.66L12.7061 12.6601L12.706 12.6603L12.7058 12.6604L12.7057 12.6606L12.7056 12.6607L12.7054 12.6609L12.7053 12.661L12.7051 12.6612L12.705 12.6613L12.7048 12.6614L12.7047 12.6616L12.7045 12.6617L12.7044 12.6619L12.7042 12.662L12.7041 12.6622L12.7039 12.6623L12.7038 12.6625L12.7036 12.6626L12.7035 12.6628L12.7034 12.6629L12.7032 12.6631L12.7031 12.6632L12.7029 12.6634L12.7028 12.6635L12.7026 12.6636L12.7025 12.6638L12.7023 12.6639L12.7022 12.6641L12.702 12.6642L12.7019 12.6644L12.7017 12.6645L12.7016 12.6647L12.7015 12.6648L12.7013 12.665L12.7012 12.6651L12.701 12.6653L12.7009 12.6654L12.7007 12.6656L12.7006 12.6657L12.7004 12.6658L12.7003 12.666L12.7001 12.6661L12.7 12.6663L12.6998 12.6664L12.6997 12.6666L12.6995 12.6667L12.6994 12.6669L12.6993 12.667L12.6991 12.6672L12.699 12.6673L12.6988 12.6675L12.6987 12.6676L12.6985 12.6677L12.6984 12.6679L12.6982 12.668L12.6981 12.6682L12.6979 12.6683L12.6978 12.6685L12.6976 12.6686L12.6975 12.6688L12.6973 12.6689L12.6972 12.6691L12.6971 12.6692L12.6969 12.6694L12.6968 12.6695L12.6966 12.6697L12.6965 12.6698L12.6963 12.6699L12.6962 12.6701L12.696 12.6702L12.6959 12.6704L12.6957 12.6705L12.6956 12.6707L12.6954 12.6708L12.6953 12.671L12.6951 12.6711L12.695 12.6713L12.6949 12.6714L12.6947 12.6716L12.6946 12.6717L12.6944 12.6719L12.6943 12.672L12.6941 12.6721L12.694 12.6723L12.6938 12.6724L12.6937 12.6726L12.6935 12.6727L12.6934 12.6729L12.6932 12.673L12.6931 12.6732L12.693 12.6733L12.6928 12.6735L12.6927 12.6736L12.6925 12.6738L12.6924 12.6739L12.6922 12.674L12.6921 12.6742L12.6919 12.6743L12.6918 12.6745L12.6916 12.6746L12.6915 12.6748L12.6913 12.6749L12.6912 12.6751L12.691 12.6752L12.6909 12.6754L12.6908 12.6755L12.6906 12.6757L12.6905 12.6758L12.6903 12.676L12.6902 12.6761L12.69 12.6762L12.6899 12.6764L12.6897 12.6765L12.6896 12.6767L12.6894 12.6768L12.6893 12.677L12.6891 12.6771L12.689 12.6773L12.6888 12.6774L12.6887 12.6776L12.6886 12.6777L12.6884 12.6779L12.6883 12.678L12.6881 12.6782L12.688 12.6783L12.6878 12.6784L12.6877 12.6786L12.6875 12.6787L12.6874 12.6789L12.6872 12.679L12.6871 12.6792L12.6869 12.6793L12.6868 12.6795L12.6867 12.6796L12.6865 12.6798L12.6864 12.6799L12.6862 12.6801L12.6861 12.6802L12.6859 12.6804L12.6858 12.6805L12.6856 12.6806L12.6855 12.6808L12.6853 12.6809L12.6852 12.6811L12.685 12.6812L12.6849 12.6814L12.6847 12.6815L12.6846 12.6817L12.6845 12.6818L12.6843 12.682L12.6842 12.6821L12.684 12.6823L12.6839 12.6824L12.6837 12.6825L12.6836 12.6827L12.6834 12.6828L12.6833 12.683L12.6831 12.6831ZM12.8599 12.8599C10.4699 15.2899 6.56982 15.3199 4.13982 12.9349L12.8599 12.8599ZM8.5 0.75C4.22193 0.75 0.75 4.22193 0.75 8.5C0.75 12.7781 4.22193 16.25 8.5 16.25C12.7781 16.25 16.25 12.7781 16.25 8.5C16.25 4.22193 12.7781 0.75 8.5 0.75Z" fill="#33EFA0" stroke="#33EFA0" stroke-width="0.5"/>
<path d="M12.8799 6.9899L7.5348 12.335C7.31978 12.55 6.97481 12.55 6.76481 12.335L4.38978 9.95996C4.17476 9.74494 4.17476 9.39998 4.38978 9.18998L4.99977 8.57506C5.21479 8.36004 5.55975 8.36004 5.76975 8.57506L7.14472 9.95002L11.4896 5.60511C11.7046 5.39009 12.0496 5.39009 12.2596 5.60511L12.8746 6.22014C13.0947 6.43013 13.0947 6.77522 12.8797 6.99012L12.8799 6.9899Z" fill="#33EFA0"/>
</svg>
